<svg xmlns="http://www.w3.org/2000/svg" viewBox="0 0 87.3 78" class="w-10 h-10">
  <path d="M6.6 66.85 10.45 73.5a9.11 9.11 0 0 0 3.3 3.3l13.75-23.8H0c0 1.55.4 3.1 1.2 4.5Z" fill="#0066da"/>
  <path d="M43.65 25 29.9 1.2a9.11 9.11 0 0 0-3.3 3.3L1.2 48.5A9.06 9.06 0 0 0 0 53h27.5Z" fill="#00ac47"/>
  <path d="M73.55 76.8a9.11 9.11 0 0 0 3.3-3.3l9.25-16c.8-1.4 1.2-2.95 1.2-4.5H59.8l5.85 11.5Z" fill="#ea4335"/>
  <path d="M43.65 25 57.4 1.2A9.11 9.11 0 0 0 52.9 0h-18.5a9.11 9.11 0 0 0-4.5 1.2Z" fill="#00832d"/>
  <path d="M59.8 53h-32.3L13.75 76.8A9.11 9.11 0 0 0 18.25 78h50.8a9.11 9.11 0 0 0 4.5-1.2Z" fill="#2684fc"/>
  <path d="M73.4 26.5 60.7 4.5a9.11 9.11 0 0 0-3.3-3.3L43.65 25l16.15 28H87.25a9.06 9.06 0 0 0-1.2-4.5Z" fill="#ffba00"/>
</svg>
